<svg width="20" height="20" viewBox="0 0 20 20" fill="none" xmlns="http://www.w3.org/2000/svg">
<g clip-path="url(#clip0)">
<path d="M13.2608 10.652H0.652174C0.292173 10.652 0 10.3598 0 9.99982C0 9.63983 0.292173 9.34766 0.652174 9.34766H13.2608C13.6208 9.34766 13.913 9.63983 13.913 9.99982C13.913 10.3598 13.6208 10.652 13.2608 10.652Z" fill="white"/>
<path d="M9.78239 14.1305C9.61536 14.1305 9.4485 14.0672 9.32144 13.9393C9.06668 13.6845 9.06668 13.2715 9.32144 13.0166L12.3389 9.99935L9.32144 6.98192C9.06668 6.72717 9.06668 6.31399 9.32144 6.05923C9.57635 5.80448 9.98937 5.80448 10.2441 6.05923L13.7223 9.5376C13.9771 9.79236 13.9771 10.2054 13.7223 10.4601L10.2441 13.9383C10.1163 14.0672 9.94941 14.1305 9.78239 14.1305Z" fill="white"/>
<path d="M10.4347 19.5651C6.47726 19.5651 2.98346 17.1843 1.53215 13.4989C1.39999 13.165 1.56511 12.7859 1.89995 12.6538C2.23384 12.5234 2.6139 12.6859 2.74606 13.0225C3.99913 16.2042 7.01735 18.2608 10.4347 18.2608C14.9894 18.2608 18.6956 14.5545 18.6956 9.99984C18.6956 5.44513 14.9894 1.73892 10.4347 1.73892C7.01735 1.73892 3.99913 3.79543 2.74606 6.97717C2.61295 7.31376 2.23384 7.47633 1.89995 7.34592C1.56511 7.21377 1.39999 6.83466 1.53215 6.50077C2.98346 2.81542 6.47726 0.43457 10.4347 0.43457C15.7086 0.43457 20 4.72592 20 9.99984C20 15.2738 15.7086 19.5651 10.4347 19.5651Z" fill="white"/>
</g>
<defs>
<clipPath id="clip0">
<path d="M0 0H20V20H0V0Z" fill="white"/>
</clipPath>
</defs>
</svg>
