<svg width="20" height="20" viewBox="0 0 20 20" fill="none" xmlns="http://www.w3.org/2000/svg">
<path fill-rule="evenodd" clip-rule="evenodd" d="M16.1917 10.817C16.225 10.5503 16.25 10.2837 16.25 10.0003C16.25 9.71699 16.225 9.45033 16.1917 9.18366L17.95 7.80866C18.1084 7.68366 18.15 7.45866 18.05 7.27533L16.3834 4.39199C16.3084 4.25866 16.1667 4.18366 16.0167 4.18366C15.9667 4.18366 15.9167 4.19199 15.875 4.20866L13.8 5.04199C13.3667 4.70866 12.9 4.43366 12.3917 4.22533L12.075 2.01699C12.05 1.81699 11.875 1.66699 11.6667 1.66699H8.33335C8.12502 1.66699 7.95002 1.81699 7.92502 2.01699L7.60835 4.22533C7.10002 4.43366 6.63335 4.71699 6.20002 5.04199L4.12502 4.20866C4.07502 4.19199 4.02502 4.18366 3.97502 4.18366C3.83335 4.18366 3.69169 4.25866 3.61669 4.39199L1.95002 7.27533C1.84169 7.45866 1.89169 7.68366 2.05002 7.80866L3.80835 9.18366C3.77502 9.45033 3.75002 9.72533 3.75002 10.0003C3.75002 10.2753 3.77502 10.5503 3.80835 10.817L2.05002 12.192C1.89169 12.317 1.85002 12.542 1.95002 12.7253L3.61669 15.6087C3.69169 15.742 3.83335 15.817 3.98335 15.817C4.03335 15.817 4.08335 15.8087 4.12502 15.792L6.20002 14.9587C6.63335 15.292 7.10002 15.567 7.60835 15.7753L7.92502 17.9837C7.95002 18.1837 8.12502 18.3337 8.33335 18.3337H11.6667C11.875 18.3337 12.05 18.1837 12.075 17.9837L12.3917 15.7753C12.9 15.567 13.3667 15.2837 13.8 14.9587L15.875 15.792C15.925 15.8087 15.975 15.817 16.025 15.817C16.1667 15.817 16.3084 15.742 16.3834 15.6087L18.05 12.7253C18.15 12.542 18.1084 12.317 17.95 12.192L16.1917 10.817ZM14.5417 9.392C14.575 9.65033 14.5834 9.82533 14.5834 10.0003C14.5834 10.1753 14.5667 10.3587 14.5417 10.6087L14.425 11.5503L15.1667 12.1337L16.0667 12.8337L15.4834 13.842L14.425 13.417L13.5584 13.067L12.8084 13.6337C12.45 13.9003 12.1084 14.1003 11.7667 14.242L10.8834 14.6003L10.75 15.542L10.5834 16.667H9.4167L9.25837 15.542L9.12504 14.6003L8.2417 14.242C7.88337 14.092 7.55004 13.9003 7.2167 13.6503L6.45837 13.067L5.57504 13.4253L4.5167 13.8503L3.93337 12.842L4.83337 12.142L5.57504 11.5587L5.45837 10.617C5.43337 10.3587 5.4167 10.167 5.4167 10.0003C5.4167 9.83366 5.43337 9.642 5.45837 9.392L5.57504 8.45033L4.83337 7.867L3.93337 7.167L4.5167 6.15866L5.57504 6.58366L6.4417 6.93366L7.1917 6.367C7.55004 6.10033 7.8917 5.90033 8.23337 5.75866L9.1167 5.40033L9.25004 4.45866L9.4167 3.33366H10.575L10.7334 4.45866L10.8667 5.40033L11.75 5.75866C12.1084 5.90866 12.4417 6.10033 12.775 6.35033L13.5334 6.93366L14.4167 6.57533L15.475 6.15033L16.0584 7.15866L15.1667 7.867L14.425 8.45033L14.5417 9.392ZM10.0001 6.66699C8.15839 6.66699 6.66672 8.15866 6.66672 10.0003C6.66672 11.842 8.15839 13.3337 10.0001 13.3337C11.8417 13.3337 13.3334 11.842 13.3334 10.0003C13.3334 8.15866 11.8417 6.66699 10.0001 6.66699ZM10.0001 11.667C9.08345 11.667 8.33345 10.917 8.33345 10.0003C8.33345 9.08366 9.08345 8.33366 10.0001 8.33366C10.9168 8.33366 11.6668 9.08366 11.6668 10.0003C11.6668 10.917 10.9168 11.667 10.0001 11.667Z" fill="white"/>
</svg>
