<svg width="30" height="28" viewBox="0 0 30 28" fill="none" xmlns="http://www.w3.org/2000/svg">
<path d="M12.1543 1.31897C12.3304 1.10632 12.3009 0.79112 12.0882 0.614957C11.8755 0.438795 11.5604 0.468376 11.3842 0.68103L12.1543 1.31897ZM1 14L0.614957 13.681L0.350721 14L0.614957 14.319L1 14ZM11.3842 27.319C11.5604 27.5316 11.8755 27.5612 12.0882 27.385C12.3009 27.2089 12.3304 26.8937 12.1543 26.681L11.3842 27.319ZM29 14.5C29.2761 14.5 29.5 14.2761 29.5 14C29.5 13.7239 29.2761 13.5 29 13.5V14.5ZM11.3842 0.68103L0.614957 13.681L1.38504 14.319L12.1543 1.31897L11.3842 0.68103ZM0.614957 14.319L11.3842 27.319L12.1543 26.681L1.38504 13.681L0.614957 14.319ZM1 14.5H29V13.5H1V14.5Z" fill="white"/>
</svg>
