<svg width="128" height="128" viewBox="0 0 128 128" fill="none" xmlns="http://www.w3.org/2000/svg">
<path d="M88 50H42V59H88V50ZM85.4725 56.5712H44.5275V52.4288H85.4725V56.5712Z" fill="#000"/>
<path d="M108 33H101.313C97.3241 33 94.079 36.2249 94.079 40.1892V63.1702H79.5892C75.4394 63.1702 72.0629 66.5257 72.0629 70.6496V77.6237H76.7058L73.5112 86.5602H68.3106L68.0684 86.3188V61.4202H65.5195V87.3682L67.2553 89.0931H72.6051L71.7562 91.4671H57.2431L56.3942 89.0931H61.7447L63.4805 87.3682V61.4202H60.9316V86.3194L60.6894 86.5602H55.4888L52.2942 77.6237H56.9371V70.6496C56.9371 66.5257 53.5606 63.1702 49.4108 63.1702H34.921V40.1892C34.921 36.2249 31.6759 33 27.6867 33H21V77.6237H27.0322L21.1772 94H28.9638L34.8181 77.6237H44.5076L50.3626 94H78.6374L84.4924 77.6237H94.1819L100.036 94H107.823L101.968 77.6237H108V33ZM27.1643 91.4671H24.7874L29.737 77.6237H32.1133L27.1643 91.4671ZM23.5488 75.0908V72.8956H37.7088V70.3626H23.5488V35.5329H27.6867C30.2707 35.5329 32.3722 37.6213 32.3722 40.1892V65.7031H49.4108C52.1554 65.7031 54.3883 67.9221 54.3883 70.6496V75.0908H23.5488ZM52.1621 91.4671L47.2131 77.6237H49.5894L54.539 91.4671H52.1621ZM76.8379 91.4671H74.4617L79.4106 77.6237H81.7876L76.8379 91.4671ZM104.213 91.4671H101.836L96.8867 77.6237H99.263L104.213 91.4671ZM105.451 75.0908H74.6117V72.8956H88.7723V70.3626H74.6203C74.7703 67.7677 76.9415 65.7031 79.5892 65.7031H96.6278V40.1892C96.6278 37.6213 98.73 35.5329 101.313 35.5329H105.451V75.0908Z" fill="#000"/>
<path d="M31 59H28V48.5097H31V59ZM31 46.8078H28V44.2549H31V46.8078ZM31 42.5529H28V40H31V42.5529Z" fill="#000"/>
<path d="M104 61H101V47.1852H104V61ZM104 45.5486H101V43.0929H104V45.5486ZM104 41.4557H101V39H104V41.4557Z" fill="#000"/>
</svg>
