<svg width="20" height="20" viewBox="0 0 20 20" fill="none" xmlns="http://www.w3.org/2000/svg">
<g clip-path="url(#clip0)">
<path d="M13.2608 10.6522H0.652174C0.292173 10.6522 0 10.3601 0 10.0001C0 9.64007 0.292173 9.3479 0.652174 9.3479H13.2608C13.6208 9.3479 13.913 9.64007 13.913 10.0001C13.913 10.3601 13.6208 10.6522 13.2608 10.6522Z" fill="white"/>
<path d="M9.78249 14.1305C9.61547 14.1305 9.4486 14.0672 9.32154 13.9393C9.06679 13.6845 9.06679 13.2715 9.32154 13.0166L12.339 9.99935L9.32154 6.98192C9.06679 6.72717 9.06679 6.31399 9.32154 6.05923C9.57646 5.80448 9.98948 5.80448 10.2442 6.05923L13.7224 9.5376C13.9772 9.79236 13.9772 10.2054 13.7224 10.4601L10.2442 13.9383C10.1164 14.0672 9.94952 14.1305 9.78249 14.1305Z" fill="white"/>
<path d="M10.4347 19.5654C6.47721 19.5654 2.9834 17.1845 1.53209 13.4991C1.39994 13.1653 1.56505 12.7862 1.8999 12.654C2.23379 12.5236 2.61385 12.6862 2.746 13.0228C3.99908 16.2045 7.01729 18.261 10.4347 18.261C14.9894 18.261 18.6956 14.5548 18.6956 10.0001C18.6956 5.44538 14.9894 1.73916 10.4347 1.73916C7.01729 1.73916 3.99908 3.79568 2.746 6.97741C2.61289 7.31401 2.23379 7.47657 1.8999 7.34617C1.56505 7.21402 1.39994 6.83491 1.53209 6.50102C2.9834 2.81566 6.47721 0.434814 10.4347 0.434814C15.7086 0.434814 19.9999 4.72617 19.9999 10.0001C19.9999 15.274 15.7086 19.5654 10.4347 19.5654Z" fill="white"/>
</g>
<defs>
<clipPath id="clip0">
<path d="M0 0H20V20H0V0Z" fill="white"/>
</clipPath>
</defs>
</svg>
