<svg width="128" height="128" viewBox="0 0 128 128" fill="none" xmlns="http://www.w3.org/2000/svg">
<path fill-rule="evenodd" clip-rule="evenodd" d="M63.9998 10.667C34.5598 10.667 10.6665 34.5603 10.6665 64.0003C10.6665 93.4403 34.5598 117.334 63.9998 117.334C93.4398 117.334 117.333 93.4403 117.333 64.0003C117.333 34.5603 93.4398 10.667 63.9998 10.667ZM63.9998 106.667C40.4798 106.667 21.3332 87.5203 21.3332 64.0003C21.3332 40.4803 40.4798 21.3337 63.9998 21.3337C87.5198 21.3337 106.666 40.4803 106.666 64.0003C106.666 87.5203 87.5198 106.667 63.9998 106.667ZM65.6533 59.4137C56.2133 57.0137 53.1733 54.4003 53.1733 50.507C53.1733 46.027 57.3867 42.8803 64.3733 42.8803C71.7333 42.8803 74.5067 46.4003 74.72 51.627H83.84C83.5733 44.4803 79.2 37.9203 70.56 35.787V26.667H58.1333V35.6803C50.08 37.387 43.6267 42.6137 43.6267 50.667C43.6267 60.2137 51.5733 65.0137 63.1467 67.787C73.5467 70.2403 75.6267 73.9203 75.6267 77.7603C75.6267 80.587 73.5467 85.1737 64.4267 85.1737C55.8933 85.1737 52.5333 81.3337 52.0533 76.427H42.88C43.4133 85.4937 50.1333 90.6137 58.1333 92.267V101.334H70.6133V92.427C78.72 90.8803 85.12 86.2403 85.1733 77.6537C85.12 65.9203 75.04 61.867 65.6533 59.4137Z" fill="#3B4E63"/>
</svg>
