<svg width="128" height="128" viewBox="0 0 128 128" fill="none" xmlns="http://www.w3.org/2000/svg">
<path fill-rule="evenodd" clip-rule="evenodd" d="M64.0003 10.667C34.5603 10.667 10.667 34.5603 10.667 64.0003C10.667 93.4403 34.5603 117.334 64.0003 117.334C93.4403 117.334 117.334 93.4403 117.334 64.0003C117.334 34.5603 93.4403 10.667 64.0003 10.667ZM64.0003 106.667C40.4803 106.667 21.3337 87.5203 21.3337 64.0003C21.3337 40.4803 40.4803 21.3337 64.0003 21.3337C87.5203 21.3337 106.667 40.4803 106.667 64.0003C106.667 87.5203 87.5203 106.667 64.0003 106.667ZM65.6538 59.4137C56.2138 57.0137 53.1738 54.4003 53.1738 50.507C53.1738 46.027 57.3872 42.8803 64.3738 42.8803C71.7338 42.8803 74.5072 46.4003 74.7205 51.627H83.8405C83.5738 44.4803 79.2005 37.9203 70.5605 35.787V26.667H58.1338V35.6803C50.0805 37.387 43.6272 42.6137 43.6272 50.667C43.6272 60.2137 51.5738 65.0137 63.1472 67.787C73.5472 70.2403 75.6272 73.9203 75.6272 77.7603C75.6272 80.587 73.5472 85.1737 64.4272 85.1737C55.8938 85.1737 52.5338 81.3337 52.0538 76.427H42.8805C43.4138 85.4937 50.1338 90.6137 58.1338 92.267V101.334H70.6138V92.427C78.7205 90.8803 85.1205 86.2403 85.1738 77.6537C85.1205 65.9203 75.0405 61.867 65.6538 59.4137Z" fill="#27AE60"/>
</svg>
