<svg width="82" height="83" viewBox="0 0 82 83" fill="none" xmlns="http://www.w3.org/2000/svg">
<path d="M26.9199 26.2002H29.4799V28.7602H26.9199V26.2002Z" fill="#99A0A8"/>
<path d="M32.04 26.2002H34.6V28.7602H32.04V26.2002Z" fill="#99A0A8"/>
<path d="M37.1599 26.2002H39.7199V28.7602H37.1599V26.2002Z" fill="#99A0A8"/>
<path d="M42.28 26.2002H44.84V28.7602H42.28V26.2002Z" fill="#99A0A8"/>
<path d="M47.3999 26.2002H49.9599V28.7602H47.3999V26.2002Z" fill="#99A0A8"/>
<path d="M32.04 72.2803H34.6V74.8403H32.04V72.2803Z" fill="#99A0A8"/>
<path d="M37.1599 72.2803H39.7199V74.8403H37.1599V72.2803Z" fill="#99A0A8"/>
<path d="M42.28 72.2803H44.84V74.8403H42.28V72.2803Z" fill="#99A0A8"/>
<path d="M47.3999 72.2803H49.9599V74.8403H47.3999V72.2803Z" fill="#99A0A8"/>
<path d="M52.52 26.2002H55.08V28.7602H52.52V26.2002Z" fill="#99A0A8"/>
<path d="M61.4799 13.4002H60.1999V8.28016C60.1982 7.94418 60.0644 7.62236 59.8274 7.38416L56.0143 3.54416C55.8959 3.42336 55.7548 3.32723 55.599 3.26132C55.4432 3.19541 55.2759 3.16103 55.1068 3.16016H26.9199C26.5805 3.16023 26.255 3.29513 26.015 3.5352L22.175 7.3752C21.9349 7.61519 21.8 7.94071 21.7999 8.28016V13.4002H20.5199C19.5015 13.4002 18.5248 13.8047 17.8046 14.5249C17.0845 15.245 16.6799 16.2217 16.6799 17.2402V19.8002C16.6799 20.8186 17.0845 21.7953 17.8046 22.5154C18.5248 23.2356 19.5015 23.6402 20.5199 23.6402H21.8575L22.4399 36.4402H21.7999C21.6263 36.4399 21.4545 36.475 21.2948 36.5433C21.1352 36.6116 20.9912 36.7117 20.8714 36.8374C20.7517 36.9631 20.6588 37.1119 20.5984 37.2746C20.5379 37.4374 20.5113 37.6108 20.5199 37.7842L21.7999 63.3841C21.8164 63.7124 21.9584 64.0218 22.1967 64.2481C22.435 64.4745 22.7513 64.6006 23.0799 64.6002H23.7199L24.3599 78.739C24.3751 79.0682 24.5166 79.3788 24.755 79.6063C24.9935 79.8337 25.3104 79.9605 25.6399 79.9601H56.3599C56.6894 79.9605 57.0064 79.8337 57.2448 79.6063C57.4833 79.3788 57.6248 79.0682 57.6399 78.739L58.2863 64.6002H58.9199C59.2486 64.6006 59.5648 64.4745 59.8031 64.2481C60.0414 64.0218 60.1835 63.7124 60.1999 63.3841L61.4799 37.7842C61.4886 37.6108 61.4619 37.4374 61.4015 37.2746C61.3411 37.1119 61.2482 36.9631 61.1284 36.8374C61.0087 36.7117 60.8646 36.6116 60.705 36.5433C60.5454 36.475 60.3735 36.4399 60.1999 36.4402H59.5599L60.1462 23.6402H61.4799C62.4984 23.6402 63.4751 23.2356 64.1952 22.5154C64.9154 21.7953 65.3199 20.8186 65.3199 19.8002V17.2402C65.3199 16.2217 64.9154 15.245 64.1952 14.5249C63.4751 13.8047 62.4984 13.4002 61.4799 13.4002ZM24.3599 8.81008L27.4499 5.72016H54.5679L57.6399 8.80752V13.4002H24.3599V8.81008ZM55.1375 77.4001H26.8623L26.2799 64.6002H55.7199L55.1375 77.4001ZM57.6975 62.0401H24.2895L23.1375 39.0002H58.8495L57.6975 62.0401ZM56.9999 36.4402H25.0063L24.4201 23.6402H57.5798L56.9999 36.4402ZM62.7599 19.8002C62.7599 20.1396 62.6251 20.4652 62.385 20.7052C62.145 20.9453 61.8194 21.0802 61.4799 21.0802H20.5199C20.1805 21.0802 19.8549 20.9453 19.6148 20.7052C19.3748 20.4652 19.2399 20.1396 19.2399 19.8002V17.2402C19.2399 16.9007 19.3748 16.5751 19.6148 16.3351C19.8549 16.095 20.1805 15.9602 20.5199 15.9602H61.4799C61.8194 15.9602 62.145 16.095 62.385 16.3351C62.6251 16.5751 62.7599 16.9007 62.7599 17.2402V19.8002Z" fill="#99A0A8"/>
</svg>
