<svg width="82" height="83" viewBox="0 0 82 83" fill="none" xmlns="http://www.w3.org/2000/svg">
<path d="M65.2761 20.2152C64.8746 16.1507 61.7776 12.8722 57.7441 12.2377C58.1711 8.29466 59.9196 5.72016 61.4801 5.72016C62.1871 5.72016 62.7601 5.14716 62.7601 4.44016C62.7601 3.73316 62.1871 3.16016 61.4801 3.16016C58.2801 3.16016 55.6741 6.97716 55.1706 12.2082C52.3881 12.5852 49.9426 14.2427 48.5626 16.6882C46.1046 16.4097 43.5541 16.1972 40.9281 16.0822C40.7696 16.1092 40.6101 16.1357 40.4506 16.1627C40.4101 16.1812 40.3706 16.2027 40.3321 16.2262C40.2346 16.2632 40.1421 16.3132 40.0571 16.3742L3.0631 46.9746C3.0351 46.9976 3.0241 47.0296 2.9981 47.0551C2.9271 47.1246 2.8641 47.2026 2.8111 47.2871C2.7776 47.3376 2.7476 47.3906 2.7221 47.4456C2.6856 47.5311 2.6596 47.6211 2.6441 47.7131C2.6281 47.7741 2.6176 47.8361 2.6111 47.8991C2.6111 47.9206 2.6001 47.9396 2.6001 47.9611V78.6801C2.6001 79.3871 3.1731 79.9601 3.8801 79.9601C3.9661 79.9596 4.0521 79.9506 4.1361 79.9331L78.3761 64.5731C78.9721 64.4511 79.3996 63.9281 79.4001 63.3201V32.6002C79.4001 27.7442 74.3926 23.3507 65.2761 20.2152ZM5.1601 49.0021L76.8401 34.1721V46.9171L5.1601 61.7481V49.0021ZM56.3601 14.6802C59.8946 14.6802 62.7601 17.5457 62.7601 21.0802C62.7601 24.6147 59.8946 27.4802 56.3601 27.4802C52.8256 27.4802 49.9601 24.6147 49.9601 21.0802C49.9646 17.5472 52.8271 14.6847 56.3601 14.6802ZM56.3601 30.0402C60.6121 30.0352 64.2771 27.0472 65.1381 22.8842C71.8656 25.3027 75.9801 28.4097 76.7106 31.5877L8.6656 45.6676L41.2971 18.6632C43.4611 18.7672 45.5671 18.9402 47.6126 19.1592C47.0241 21.8097 47.6711 24.5847 49.3726 26.7007C51.0741 28.8172 53.6446 30.0457 56.3601 30.0402ZM5.1601 77.1081V64.3631L76.8401 49.5321V62.2771L5.1601 77.1081Z" fill="#99A0A8"/>
</svg>
