<svg width="82" height="83" viewBox="0 0 82 83" fill="none" xmlns="http://www.w3.org/2000/svg">
<path d="M39.7202 67.1601V69.7201C44.1319 69.715 48.3614 67.9602 51.4809 64.8407C54.6004 61.7212 56.3551 57.4917 56.3602 53.0801H53.8002C53.7958 56.813 52.311 60.3917 49.6714 63.0313C47.0319 65.6708 43.4531 67.1557 39.7202 67.1601Z" fill="#99A0A8"/>
<path d="M73.0001 39.0004H61.4801V37.7204C61.4801 36.7019 61.0755 35.7252 60.3554 35.0051C59.6353 34.2849 58.6585 33.8804 57.6401 33.8804H6.4401C5.42167 33.8804 4.44495 34.2849 3.72481 35.0051C3.00467 35.7252 2.6001 36.7019 2.6001 37.7204V53.0804C2.60604 57.7321 4.10009 62.26 6.86376 66.0017C9.62744 69.7435 13.5158 72.503 17.9601 73.8765V76.1204C17.9601 77.1388 18.3647 78.1155 19.0848 78.8357C19.8049 79.5558 20.7817 79.9604 21.8001 79.9604H42.2801C43.2985 79.9604 44.2752 79.5558 44.9954 78.8357C45.7155 78.1155 46.1201 77.1388 46.1201 76.1204V73.8765C49.0632 72.9609 51.7793 71.4329 54.0899 69.3929C56.4005 67.353 58.2534 64.8473 59.5268 62.0404H73.0001C74.6969 62.0383 76.3235 61.3634 77.5233 60.1636C78.7231 58.9638 79.3981 57.3371 79.4001 55.6404V45.4004C79.3981 43.7036 78.7231 42.0769 77.5233 40.8771C76.3235 39.6773 74.6969 39.0024 73.0001 39.0004ZM61.4801 45.4004H71.7201C72.0596 45.4004 72.3852 45.5352 72.6252 45.7753C72.8652 46.0153 73.0001 46.3409 73.0001 46.6804V54.3604C73.0001 54.6998 72.8652 55.0254 72.6252 55.2655C72.3852 55.5055 72.0596 55.6404 71.7201 55.6404H61.3163C61.4208 54.791 61.4755 53.9362 61.4801 53.0804V45.4004ZM43.5601 76.1204C43.5601 76.4598 43.4252 76.7854 43.1852 77.0255C42.9452 77.2655 42.6196 77.4004 42.2801 77.4004H21.8001C21.4606 77.4004 21.135 77.2655 20.895 77.0255C20.655 76.7854 20.5201 76.4598 20.5201 76.1204V74.4807C21.787 74.7137 23.072 74.834 24.3601 74.8404H39.7201C41.0082 74.834 42.2932 74.7137 43.5601 74.4807V76.1204ZM39.7201 72.2804H24.3601C19.2697 72.2746 14.3895 70.2499 10.79 66.6505C7.19056 63.051 5.16586 58.1708 5.1601 53.0804V37.7204C5.1601 37.3809 5.29495 37.0553 5.535 36.8153C5.77505 36.5752 6.10062 36.4404 6.4401 36.4404H16.6801V41.5604H14.1201C13.9094 41.5603 13.702 41.6123 13.5162 41.7117C13.3304 41.811 13.1721 41.9547 13.0551 42.13L10.4951 45.97C10.3553 46.1805 10.2805 46.4276 10.2801 46.6804V60.7604C10.2801 61.0998 10.415 61.4254 10.655 61.6655C10.895 61.9055 11.2206 62.0404 11.5601 62.0404H24.3601C24.6996 62.0404 25.0252 61.9055 25.2652 61.6655C25.5052 61.4254 25.6401 61.0998 25.6401 60.7604V46.6804C25.6397 46.4276 25.5649 46.1805 25.4251 45.97L22.8651 42.13C22.7481 41.9547 22.5898 41.811 22.404 41.7117C22.2182 41.6123 22.0108 41.5603 21.8001 41.5604H19.2401V36.4404H57.6401C57.9796 36.4404 58.3052 36.5752 58.5452 36.8153C58.7852 37.0553 58.9201 37.3809 58.9201 37.7204V53.0804C58.9143 58.1708 56.8896 63.051 53.2902 66.6505C49.6907 70.2499 44.8105 72.2746 39.7201 72.2804ZM21.1153 44.1204L23.0801 47.0644V59.4804H12.8401V47.0644L14.8049 44.1204H21.1153ZM76.8401 55.6404C76.8401 56.6588 76.4355 57.6355 75.7154 58.3557C74.9953 59.0758 74.0185 59.4804 73.0001 59.4804H60.5163C60.6443 59.0618 60.7428 58.6292 60.8465 58.2004H71.7201C72.7385 58.2004 73.7152 57.7958 74.4354 57.0757C75.1555 56.3555 75.5601 55.3788 75.5601 54.3604V46.6804C75.5601 45.6619 75.1555 44.6852 74.4354 43.9651C73.7152 43.2449 72.7385 42.8404 71.7201 42.8404H61.4801V41.5604H73.0001C74.0185 41.5604 74.9953 41.9649 75.7154 42.6851C76.4355 43.4052 76.8401 44.3819 76.8401 45.4004V55.6404Z" fill="#99A0A8"/>
<path d="M56.3601 46.6802H53.8V49.2402H56.3601V46.6802Z" fill="#99A0A8"/>
<path d="M29.48 28.7602H32.04C32.0061 27.4704 32.391 26.2044 33.137 25.1518C34.1245 23.7014 34.6358 21.9794 34.6 20.2251C34.6358 18.4708 34.1245 16.7488 33.137 15.2984C32.391 14.2458 32.0061 12.9798 32.04 11.6901C32.0056 10.4011 32.3906 9.13576 33.137 8.08432C34.124 6.63459 34.6353 4.91362 34.6 3.16016H32.04C32.0746 4.44917 31.6897 5.71455 30.9431 6.76592C29.9561 8.21565 29.4448 9.93661 29.48 11.6901C29.4442 13.4444 29.9556 15.1663 30.9431 16.6168C31.6889 17.6695 32.0738 18.9354 32.04 20.2251C32.074 21.5148 31.6891 22.7808 30.9431 23.8334C29.9556 25.2839 29.4442 27.0058 29.48 28.7602Z" fill="#99A0A8"/>
<path d="M42.2801 28.7602H44.8401C44.8061 27.4704 45.191 26.2044 45.937 25.1518C46.9245 23.7014 47.4359 21.9794 47.4001 20.2251C47.4359 18.4708 46.9245 16.7488 45.937 15.2984C45.191 14.2458 44.8061 12.9798 44.8401 11.6901C44.8057 10.4011 45.1906 9.13576 45.937 8.08432C46.924 6.63459 47.4354 4.91362 47.4001 3.16016H44.8401C44.8747 4.44917 44.4897 5.71455 43.7431 6.76592C42.7561 8.21565 42.2448 9.93661 42.2801 11.6901C42.2443 13.4444 42.7556 15.1663 43.7431 16.6168C44.489 17.6695 44.8738 18.9354 44.8401 20.2251C44.874 21.5148 44.4891 22.7808 43.7431 23.8334C42.7556 25.2839 42.2443 27.0058 42.2801 28.7602Z" fill="#99A0A8"/>
<path d="M16.6802 28.7602H19.2402C19.2063 27.4704 19.5912 26.2044 20.3372 25.1518C21.3247 23.7014 21.836 21.9794 21.8002 20.2251C21.836 18.4708 21.3247 16.7488 20.3372 15.2984C19.5912 14.2458 19.2063 12.9798 19.2402 11.6901C19.2058 10.4011 19.5908 9.13576 20.3372 8.08432C21.3242 6.63459 21.8355 4.91362 21.8002 3.16016H19.2402C19.2748 4.44917 18.8899 5.71455 18.1433 6.76592C17.1563 8.21565 16.645 9.93661 16.6802 11.6901C16.6444 13.4444 17.1558 15.1663 18.1433 16.6168C18.8891 17.6695 19.274 18.9354 19.2402 20.2251C19.2742 21.5148 18.8893 22.7808 18.1433 23.8334C17.1558 25.2839 16.6444 27.0058 16.6802 28.7602Z" fill="#99A0A8"/>
</svg>
