<svg width="128" height="128" viewBox="0 0 128 128" fill="none" xmlns="http://www.w3.org/2000/svg">
<path d="M54 52.296V46C54 45.4696 53.7892 44.9609 53.4142 44.5858C53.0391 44.2107 52.5304 44 52 44V38C52 37.4696 51.7892 36.9609 51.4142 36.5858C51.0391 36.2107 50.5304 36 50 36H48V24H50C50.5304 24 51.0391 23.7893 51.4142 23.4142C51.7892 23.0391 52 22.5304 52 22V16H54C54.5304 16 55.0391 15.7893 55.4142 15.4142C55.7892 15.0391 56 14.5304 56 14V6C56 5.46957 55.7892 4.96086 55.4142 4.58579C55.0391 4.21071 54.5304 4 54 4H38C37.4695 4 36.9608 4.21071 36.5857 4.58579C36.2107 4.96086 36 5.46957 36 6V8H14C13.6283 7.99983 13.2639 8.10322 12.9478 8.29858C12.6316 8.49394 12.3761 8.77353 12.21 9.106L8.20996 17.106L11.79 18.894L15.236 12H36V14C36 14.5304 36.2107 15.0391 36.5857 15.4142C36.9608 15.7893 37.4695 16 38 16H40V22C40 22.5304 40.2107 23.0391 40.5857 23.4142C40.9608 23.7893 41.4695 24 42 24H44V36H42C41.4695 36 40.9608 36.2107 40.5857 36.5858C40.2107 36.9609 40 37.4696 40 38V44C39.4695 44 38.9608 44.2107 38.5857 44.5858C38.2107 44.9609 38 45.4696 38 46V52.296C36.836 52.6533 35.8087 53.357 35.0551 54.3132C34.3014 55.2695 33.8573 56.4328 33.782 57.648L30.252 117.648C30.204 118.464 30.3233 119.282 30.6027 120.05C30.882 120.818 31.3155 121.522 31.8764 122.116C32.4374 122.711 33.1139 123.185 33.8647 123.509C34.6154 123.833 35.4244 124 36.242 124H55.758C56.5756 124 57.3846 123.833 58.1353 123.509C58.886 123.185 59.5626 122.711 60.1235 122.116C60.6844 121.522 61.1179 120.818 61.3972 120.05C61.6766 119.282 61.7959 118.464 61.748 117.648L58.218 57.648C58.1426 56.4328 57.6985 55.2695 56.9448 54.3132C56.1912 53.357 55.1639 52.6533 54 52.296ZM40 8H52V12H40V8ZM48 16V20H44V16H48ZM50 48V52H42V48H50ZM44 40H48V44H44V40ZM57.212 119.374C57.0258 119.573 56.8005 119.731 56.5503 119.839C56.3001 119.947 56.0304 120.001 55.758 120H36.242C35.9691 120 35.699 119.945 35.4483 119.837C35.1976 119.729 34.9717 119.572 34.7843 119.373C34.597 119.175 34.4522 118.94 34.359 118.684C34.2657 118.427 34.2259 118.154 34.242 117.882L37.77 57.882C37.8001 57.3723 38.024 56.8934 38.3959 56.5435C38.7677 56.1936 39.2594 55.9991 39.77 56H52.226C52.7366 55.9991 53.2282 56.1936 53.6 56.5435C53.9719 56.8934 54.1958 57.3723 54.226 57.882L57.754 117.882C57.7711 118.155 57.7318 118.428 57.6385 118.685C57.5453 118.941 57.4 119.176 57.212 119.374Z" fill="#99A0A8"/>
<path d="M115.546 49.96L110.672 46.71C109.85 46.1621 109.176 45.4198 108.71 44.549C108.244 43.6782 108 42.7057 108 41.718V19.658C109.169 19.2428 110.181 18.4762 110.897 17.4632C111.613 16.4503 111.998 15.2405 112 14V10C112 8.4087 111.368 6.88258 110.243 5.75736C109.117 4.63214 107.591 4 106 4H90C88.4087 4 86.8826 4.63214 85.7574 5.75736C84.6321 6.88258 84 8.4087 84 10V14C84.0015 15.2405 84.3868 16.4503 85.1029 17.4632C85.819 18.4762 86.831 19.2428 88 19.658V41.718C88.0013 42.7071 87.758 43.6811 87.2918 44.5535C86.8256 45.4258 86.151 46.1694 85.328 46.718L80.454 49.96C79.0831 50.8724 77.959 52.1097 77.1819 53.5617C76.4048 55.0136 75.9988 56.6352 76 58.282V122C76 122.53 76.2107 123.039 76.5858 123.414C76.9609 123.789 77.4696 124 78 124H118C118.53 124 119.039 123.789 119.414 123.414C119.789 123.039 120 122.53 120 122V58.282C120.001 56.6352 119.595 55.0136 118.818 53.5617C118.041 52.1097 116.917 50.8724 115.546 49.96ZM88 10C88 9.46957 88.2107 8.96086 88.5858 8.58579C88.9609 8.21071 89.4696 8 90 8H106C106.53 8 107.039 8.21071 107.414 8.58579C107.789 8.96086 108 9.46957 108 10V14C108 14.5304 107.789 15.0391 107.414 15.4142C107.039 15.7893 106.53 16 106 16H90C89.4696 16 88.9609 15.7893 88.5858 15.4142C88.2107 15.0391 88 14.5304 88 14V10ZM92 20H104V24H92V20ZM92 41.718V28H104V41.718C104 41.814 104.014 41.906 104.018 42H91.982C91.986 41.906 92 41.814 92 41.718ZM82.672 53.29L87.546 50.04C89.0487 49.0331 90.2495 47.6366 91.02 46H104.98C105.75 47.6366 106.951 49.0331 108.454 50.04L113.328 53.29C114.15 53.8379 114.824 54.5802 115.29 55.451C115.756 56.3218 116 57.2943 116 58.282V62H80V58.282C80.0001 57.2943 80.244 56.3218 80.7101 55.451C81.1762 54.5802 81.8501 53.8379 82.672 53.29ZM116 66V108H80V66H116ZM80 120V112H116V120H80Z" fill="#99A0A8"/>
</svg>
