<svg width="82" height="83" viewBox="0 0 82 83" fill="none" xmlns="http://www.w3.org/2000/svg">
<g clip-path="url(#clip0)">
<path d="M57.9117 27.728L50.001 12.0541V8.4435H50.4367C51.1587 8.4435 51.744 7.85838 51.744 7.13627V1.90733C51.744 1.18522 51.1587 0.600098 50.4367 0.600098H31.5638C30.8418 0.600098 30.2565 1.18522 30.2565 1.90733V7.13627C30.2565 7.85838 30.8418 8.4435 31.5638 8.4435H31.9995V12.0541L24.0888 27.728C23.1295 29.6287 22.3779 32.7856 22.3779 34.9148V77.7269C22.3779 80.3698 24.5281 82.5201 27.1711 82.5201H54.8292C57.4723 82.5201 59.6224 80.3698 59.6224 77.7269V34.9148C59.6224 32.7854 58.871 29.6287 57.9117 27.728ZM32.871 3.21457H49.1293V5.82903H32.871V3.21457ZM34.4739 12.9542C34.5661 12.7715 34.614 12.5698 34.614 12.3652V8.4435H47.3864V12.3652C47.3864 12.5698 47.4343 12.7715 47.5265 12.9542L52.5015 22.8112C51.5583 23.1169 50.8972 23.61 50.325 24.0378C49.549 24.618 48.9883 25.037 47.7383 25.037C46.4882 25.037 45.9275 24.618 45.1515 24.0378C44.2459 23.3608 43.1187 22.5181 40.9992 22.5181C38.8799 22.5181 37.7529 23.3608 36.8473 24.0379C36.0715 24.618 35.5109 25.037 34.261 25.037C33.0111 25.037 32.4506 24.618 31.6748 24.0379C31.1028 23.6102 30.4416 23.1171 29.4987 22.8114L34.4739 12.9542ZM57.0079 77.7269C57.0079 78.9283 56.0307 79.9056 54.8292 79.9056H27.1713C25.9699 79.9056 24.9926 78.9283 24.9926 77.7269V34.9148C24.9926 33.1938 25.6476 30.4422 26.423 28.9057L28.2943 25.1982C29.0446 25.3371 29.5142 25.6866 30.1096 26.1316C31.0151 26.8087 32.1423 27.6515 34.2614 27.6515C36.3805 27.6515 37.5077 26.8087 38.4132 26.1316C39.189 25.5515 39.7495 25.1325 40.9994 25.1325C42.2495 25.1325 42.8102 25.5515 43.5861 26.1318C44.4918 26.8089 45.619 27.6515 47.7383 27.6515C49.8577 27.6515 50.9847 26.8087 51.8906 26.1318C52.486 25.6866 52.9557 25.3371 53.7062 25.1982L55.5775 28.9059C56.3528 30.442 57.0079 33.1938 57.0079 34.9148V77.7269Z" fill="#99A0A8"/>
<path d="M28.9142 69.4478C28.1922 69.4478 27.6069 70.0329 27.6069 70.755V75.9839C27.6069 76.706 28.1922 77.2912 28.9142 77.2912C29.6361 77.2912 30.2214 76.706 30.2214 75.9839V70.755C30.2214 70.0329 29.6361 69.4478 28.9142 69.4478Z" fill="#99A0A8"/>
<path d="M30.513 29.5062C29.8684 29.181 29.0824 29.4396 28.757 30.084C28.1765 31.234 27.6069 33.6268 27.6069 34.915V65.5263C27.6069 66.2484 28.1922 66.8335 28.9142 66.8335C29.6361 66.8335 30.2214 66.2484 30.2214 65.5263V34.915C30.2214 34.0312 30.6927 32.0511 31.091 31.2623C31.4162 30.6177 31.1574 29.8315 30.513 29.5062Z" fill="#99A0A8"/>
<path d="M38.5355 13.6726H43.4645C44.1864 13.6726 44.7717 13.0875 44.7717 12.3653C44.7717 11.6432 44.1864 11.0581 43.4645 11.0581H38.5355C37.8136 11.0581 37.2283 11.6432 37.2283 12.3653C37.2283 13.0875 37.8136 13.6726 38.5355 13.6726Z" fill="#99A0A8"/>
</g>
<defs>
<clipPath id="clip0">
<path d="M0.0400391 0.600098H81.96V82.5201H0.0400391V0.600098Z" fill="white"/>
</clipPath>
</defs>
</svg>
