<svg width="28" height="28" viewBox="0 0 28 28" fill="none" xmlns="http://www.w3.org/2000/svg">
<path fill-rule="evenodd" clip-rule="evenodd" d="M0.292891 1.70711C-0.0976334 1.31658 -0.0976334 0.683418 0.292891 0.292893C0.683416 -0.0976311 1.31658 -0.0976311 1.70711 0.292893L14 12.5858L26.2929 0.292893C26.6834 -0.0976311 27.3166 -0.0976311 27.7071 0.292893C28.0976 0.683417 28.0976 1.31658 27.7071 1.70711L15.4142 14L27.7071 26.2929C28.0976 26.6834 28.0976 27.3166 27.7071 27.7071C27.3166 28.0976 26.6834 28.0976 26.2929 27.7071L14 15.4142L1.70711 27.7071C1.31658 28.0976 0.683416 28.0976 0.292891 27.7071C-0.0976334 27.3166 -0.0976334 26.6834 0.292891 26.2929L12.5858 14L0.292891 1.70711Z" fill="white"/>
</svg>
